<?xml version="1.0" standalone="no"?><!DOCTYPE svg PUBLIC "-//W3C//DTD SVG 1.1//EN" "http://www.w3.org/Graphics/SVG/1.1/DTD/svg11.dtd"><svg class="icon" width="200px" height="200.00px" viewBox="0 0 1024 1024" version="1.1" xmlns="http://www.w3.org/2000/svg"><path fill="#eb6363" d="M72.048233 1023.990011A51.1056 51.1056 0 0 1 21.002569 972.944346V445.176131a51.1056 51.1056 0 0 1 51.045664-51.035675h80.664137c25.492864 0 39.527924 17.311573 39.527925 48.738121v530.075759c0 32.435474-14.404667 51.045664-39.527925 51.045664H72.048233z m64.181682-55.990401V447.823313H77.002959v520.176297h59.236945z m193.943556 53.692846c-53.942581 0-99.444146-44.48265-99.444146-97.136602V440.571033c0-37.70986 24.543874-57.10921 48.548322-71.114302 35.292433-21.567043 100.662849-69.525993 140.979934-147.842629 12.556634-24.45397 19.24951-53.592953 25.71263-81.762967 15.7832-68.756812 32.105825-139.851135 135.405867-139.851135 51.065643 0 87.906428 24.713693 106.616512 71.46393 18.77002 46.950024 18.680116 116.226283-0.239745 190.027724-16.042923 62.563404-43.843331 119.872401-73.921314 153.356759h287.90354c35.96172 0 68.027588 13.185964 85.838629 35.282444 13.735379 17.04186 18.400414 37.959594 13.485645 60.605488-33.564272 141.549327-68.94661 294.966022-99.114498 426.446068-9.220186 41.525798-47.179779 84.510043-94.709186 84.510043H330.173471zM581.386067 56.030358c-57.029295 0-64.721107 23.425065-80.424392 97.476241-6.872684 32.075857-13.985114 65.230565-30.44759 95.818007-34.533241 67.238428-89.394843 124.497478-163.086402 170.098937l-0.189798 0.119873-2.817001 1.398511c-13.505624 6.682886-19.978734 10.40892-19.978734 21.976607v483.984821c0 21.916671 20.298393 41.146202 43.443756 41.146202h477.042211c15.073954 0 36.830795-17.761094 41.246096-39.807627v-0.129862c0.549415-2.417427 55.740667-243.810475 96.747017-416.956169 1.937937-13.985114-1.72816-21.916671-5.99362-28.419749-6.802759-8.381079-16.981924-11.807432-35.18255-11.807432H602.123993c-25.213162 0-52.074569-14.784263-59.866276-32.96491l-0.079914-0.209777c-7.502014-19.978734-2.886927-40.396999 12.656527-55.940454 27.061195-25.972354 54.152357-79.105796 70.754685-138.702357 17.35153-62.273713 19.778946-119.57272 6.503078-153.286834v-0.119872C623.361386 65.769991 608.677017 56.030358 581.386067 56.030358z"  /><path fill="#eb6363" d="M901.735071 419.833107H602.123993C696.613413 329.948785 765.709863 4.984694 581.386067 4.984694c-140.580359 0-112.929792 133.667717-156.723175 218.936952-39.178297 76.059039-101.402062 124.457521-142.847945 149.840502-27.650567 16.132827-46.090938 34.563209-46.090939 66.838853v483.974831c0 50.696036 43.793384 92.191866 94.489421 92.191866h477.022232c43.793384 0 80.664137-39.178297 89.904301-80.664136 32.265655-140.580359 66.838853-290.390893 99.104508-426.366154 11.527729-53.00358-34.573198-89.904301-94.489421-89.904301z m46.090938 92.181877c-41.48584 175.153557-96.796964 417.145968-96.796964 417.145968-4.605098 23.045469-27.660557 43.793384-46.090938 43.793384H327.865928c-25.353013 0-48.398482-20.747915-48.398483-46.090939v-483.98482c0-16.132827 11.51774-20.747915 25.353013-27.660557 48.398482-29.9681 117.53489-82.961691 161.318285-168.240916 16.132827-29.9681 23.055459-62.223766 29.9681-94.48942C512.23967 76.478592 521.459856 51.085622 581.386067 51.085622c29.9681 0 46.090938 11.527729 55.311124 36.870753 29.9681 76.049049-20.747915 241.99241-78.366582 297.303534-13.825284 13.825284-18.440371 32.265655-11.51774 50.706026 6.912642 16.132827 32.265655 29.9681 55.311124 29.9681h299.611078c16.132827 0 29.9681 2.307544 39.178296 13.825284 4.615087 6.912642 9.220186 16.132827 6.912642 32.265654z m-795.113639-112.879845H72.048233a46.230789 46.230789 0 0 0-46.090938 46.090939v527.728258a46.230789 46.230789 0 0 0 46.090938 46.090938h80.654148c25.353013 0 34.573198-20.737925 34.573198-46.090938V442.878577c0-25.353013-9.220186-43.793384-34.573198-43.793384z m-11.527729 573.819197H72.048233V442.878577h69.136408v530.075759z m0 0"  /></svg>