<?xml version="1.0" standalone="no"?><!DOCTYPE svg PUBLIC "-//W3C//DTD SVG 1.1//EN" "http://www.w3.org/Graphics/SVG/1.1/DTD/svg11.dtd"><svg class="icon" width="200px" height="196.92px" viewBox="0 0 1040 1024" version="1.1" xmlns="http://www.w3.org/2000/svg"><path fill="#ffffff" d="M29.244045 756.726747c-22.213931 22.217001-22.213931 58.233286 0.002047 80.449263 22.213931 22.215978 58.235332 22.215978 80.447217 0.002047l0.002047-0.002047 0 0 359.679849-359.676779c23.509437-23.511483 61.629639-23.511483 85.142146 0L914.248364 837.231269c22.217001 22.217001 58.234309 22.217001 80.449263 0.002047 22.217001-22.215978 22.217001-58.235332 0-80.45131-0.01842-0.016373-0.035816-0.032746-0.056282-0.053212l-369.178177-369.177154c-62.695924-62.695924-164.348092-62.695924-227.046063 0L29.246091 756.726747l0 0L29.244045 756.726747zM967.066313 169.870876l-0.002047 0 0-0.002047L56.880475 169.868829l0 0.002047c-31.417547 0.002047-56.880475 25.469068-56.880475 56.886615 0 31.413454 25.462928 56.883545 56.880475 56.885592l0 0 910.184815 0 0 0 0.002047 0c31.4155 0 56.883545-25.470091 56.883545-56.885592C1023.949858 195.337897 998.482837 169.870876 967.066313 169.870876z" /></svg>