<?xml version="1.0" standalone="no"?><!DOCTYPE svg PUBLIC "-//W3C//DTD SVG 1.1//EN" "http://www.w3.org/Graphics/SVG/1.1/DTD/svg11.dtd"><svg class="icon" width="200px" height="200.00px" viewBox="0 0 1024 1024" version="1.1" xmlns="http://www.w3.org/2000/svg"><path fill="#aaaaaa" d="M812.8 1024 211.2 1024c-51.2 0-89.6-38.4-89.6-89.6L121.6 89.6C121.6 38.4 160 0 211.2 0l601.6 0c51.2 0 89.6 38.4 89.6 89.6l0 844.8C902.4 985.6 864 1024 812.8 1024zM211.2 64C198.4 64 185.6 76.8 185.6 89.6l0 844.8c0 12.8 12.8 25.6 25.6 25.6l601.6 0c12.8 0 25.6-12.8 25.6-25.6L838.4 89.6c0-12.8-12.8-25.6-25.6-25.6L211.2 64zM768 838.4 256 838.4c-19.2 0-32-12.8-32-32L224 172.8c0-19.2 12.8-32 32-32l512 0c19.2 0 32 12.8 32 32l0 633.6C800 819.2 787.2 838.4 768 838.4zM288 774.4l448 0L736 204.8l-448 0L288 774.4zM537.6 928 486.4 928c-19.2 0-32-12.8-32-32s12.8-32 32-32l51.2 0c19.2 0 32 12.8 32 32S556.8 928 537.6 928z" /></svg>