<?xml version="1.0" standalone="no"?><!DOCTYPE svg PUBLIC "-//W3C//DTD SVG 1.1//EN" "http://www.w3.org/Graphics/SVG/1.1/DTD/svg11.dtd"><svg class="icon" width="200px" height="200.00px" viewBox="0 0 1024 1024" version="1.1" xmlns="http://www.w3.org/2000/svg"><path fill="#999999" d="M958.8 441c-3.9-42-16-82.9-35.6-120.3-37.9-68.4-93.7-125.2-161.5-164.1-80.6-43-171-64.3-262.3-61.8h-13.5c-7.6 0.6-15.1 1.5-22.5 2.1l-22.9 1.9h-0.8c-13.2 2.8-26.4 5.6-39.3 8.5-12.9 2.9-28.1 6-41.6 8.8h-0.3c-62.8 18.7-121 50.2-170.9 92.6C139.2 250.8 101.9 304.1 79 364c-13.4 38.1-19 78.6-16.2 119 1.4 38.8 9.3 77 23.4 113.1 25.3 60.6 65.8 113.6 117.7 154C258.5 791.4 321 821 387.6 837c43 10.3 87 15.5 131.2 15.4 30.2 0.5 60.3-3 89.5-10.3 28 24.3 60 43.6 94.5 56.9 40 16.7 82.5 26.7 125.8 29.5l12.3 0.6-5.6-10.9c-7.4-13.5-14.6-27.4-21.8-41.1-7.2-13.7-14.3-27-21.6-40.6-3.4-9.8-16.3-46.6-19.3-55.4l13.8-9.6c13.5-9.2 27.1-18.6 40.7-28.1 53.7-43.7 94.4-101.3 117.7-166.5 14.9-43.7 19.7-90.1 14-135.9z m-66 117.6c-19.7 55-53.9 103.7-99 140.8-14.8 10.3-27 18.8-38.4 26.5-0.1 0.1-14.3 9.9-14.3 9.9-20.1 14-28.6 39.6-20.7 62.9 1.7 4.9 5.9 17.1 10.5 30.1 3.6 10.3 7.3 21 8.9 25.5v0.1c-5.3-1.9-10.6-4-15.9-6.2-0.5-0.2-0.9-0.4-1.4-0.6-28.7-11.1-55-26.9-78.3-47.1-10.1-8.8-23-13.5-36.1-13.5-4.5 0-8.9 0.5-13.4 1.7-23 5.8-46.7 8.7-70.3 8.7h-6.5c-39.6 0-79.2-4.7-117.7-13.9-59.4-14.3-114.2-40.2-163-77-44-34.3-78.6-79.5-100.2-130.9-11.7-30.3-18.3-62-19.4-94.5 0-0.6-0.1-1.2-0.1-1.7-2.2-32.8 2.2-65.2 13-96.3 19.6-50.9 51.7-96.7 92.8-132.6 43.6-36.9 93.3-64 147.9-80.7h0.2c13.2-2.7 28.2-5.8 41.2-8.7 10.7-2.4 22.4-5 34.7-7.6l20.8-1.7c4-0.3 7.9-0.7 11.7-1.1 3-0.3 5.8-0.6 8.6-0.8h12.7c4.3-0.1 8.6-0.2 12.9-0.2 76.9 0 153.4 19.1 221.3 55.1 58.6 33.9 106.9 83 139.8 142.1 16.2 31 26 64.5 29.3 99.3 0.1 0.6 0.1 1.2 0.2 1.8 4.3 37 0.3 75.3-11.8 110.6zM236.7 465.2a56.4 84.1 0 1 0 112.8 0 56.4 84.1 0 1 0-112.8 0ZM557.1 549.4c-31.1 0-56.4-37.7-56.4-84.1 0-46.5 25.2-84.1 56.4-84.1 31.1 0 56.4 37.7 56.4 84.1-0.1 46.4-25.3 84.1-56.4 84.1z" /></svg>